<svg width="40" height="41" viewBox="0 0 40 41" fill="none" xmlns="http://www.w3.org/2000/svg">
<g clip-path="url(#clip0_232_226)">
<path fill-rule="evenodd" clip-rule="evenodd" d="M20.5996 0.878721C20.216 0.719502 19.7839 0.719424 19.4004 0.878721L4.08789 7.23712C3.50508 7.47939 3.12513 8.04833 3.125 8.6795V16.408C3.125 27.0496 9.55668 36.6228 19.4092 40.6443C19.7876 40.7988 20.2123 40.7988 20.5908 40.6443C30.4432 36.6229 36.875 27.0497 36.875 16.408V8.6795C36.8749 8.04833 36.495 7.47939 35.9121 7.23712L20.5996 0.878721ZM17.9947 22.0906L25.7919 13.9098C26.5002 13.1665 27.6488 13.1665 28.3573 13.9098C29.0658 14.6531 29.0657 15.8582 28.3572 16.6015L19.2774 26.1282C18.5688 26.8716 17.4202 26.8713 16.712 26.1282L11.6422 20.8089C10.9337 20.0656 10.9337 18.8605 11.6422 18.1172C12.3507 17.374 13.4993 17.3739 14.2076 18.1172L17.9947 22.0906Z" fill="#CBAF7D"/>
</g>
<defs>
<clipPath id="clip0_232_226">
<rect width="40" height="40" fill="white" transform="translate(0 0.759766)"/>
</clipPath>
</defs>
</svg>
