<svg width="30" height="30" viewBox="0 0 30 30" fill="none" xmlns="http://www.w3.org/2000/svg">
<path d="M4.61374 7.865C6.36749 5.96375 9.02124 5 12.5 5H13.75V8.52375L12.745 8.725C11.0325 9.0675 9.84124 9.74125 9.20374 10.73C8.871 11.2626 8.68234 11.8725 8.65624 12.5H12.5C12.8315 12.5 13.1494 12.6317 13.3839 12.8661C13.6183 13.1005 13.75 13.4185 13.75 13.75V22.5C13.75 23.8787 12.6287 25 11.25 25H3.74999C3.41847 25 3.10052 24.8683 2.8661 24.6339C2.63168 24.3995 2.49999 24.0815 2.49999 23.75V17.5L2.50374 13.8513C2.49249 13.7125 2.25499 10.425 4.61374 7.865ZM25 25H17.5C17.1685 25 16.8505 24.8683 16.6161 24.6339C16.3817 24.3995 16.25 24.0815 16.25 23.75V17.5L16.2537 13.8513C16.2425 13.7125 16.005 10.425 18.3637 7.865C20.1175 5.96375 22.7712 5 26.25 5H27.5V8.52375L26.495 8.725C24.7825 9.0675 23.5912 9.74125 22.9537 10.73C22.621 11.2626 22.4323 11.8725 22.4062 12.5H26.25C26.5815 12.5 26.8995 12.6317 27.1339 12.8661C27.3683 13.1005 27.5 13.4185 27.5 13.75V22.5C27.5 23.8787 26.3787 25 25 25Z" fill="#CBAF7D"/>
</svg>
