<svg width="48" height="49" viewBox="0 0 48 49" fill="none" xmlns="http://www.w3.org/2000/svg">
<g clip-path="url(#clip0_95_196)">
<path d="M23.9406 13.7233C23.2468 14.0592 22.5594 14.5247 21.9219 15.163C18.7258 18.3597 15.8205 21.265 15.8205 21.265L15.8217 21.2669C15.8044 21.2843 15.7869 21.2986 15.7695 21.3166C14.9423 22.1445 14.9094 23.4643 15.6734 24.3302C15.7037 24.365 15.736 24.3992 15.7695 24.4321C16.6284 25.2921 18.0229 25.2942 18.885 24.4321L22.241 21.0761C22.82 21.2882 23.3892 21.412 23.9354 21.4739C24.6795 21.5564 25.3784 21.5254 26 21.4378C27.5152 21.2231 27.3565 21.2856 28.2354 20.9968C29.1122 20.7092 30.0974 20.1198 30.0974 20.1198L30.6939 20.7156C30.7596 20.7795 32.28 22.3023 33.0556 23.0767C33.1929 23.2146 33.3096 23.3282 33.3877 23.4094C33.4773 23.5029 33.5772 23.5706 33.6391 23.6609L37.5089 27.5308C38.6244 26.2792 39.8984 24.4153 39.7411 22.2753L30.0715 12.6071C30.0715 12.6071 26.7246 12.3679 23.9406 13.7233Z" fill="#CBAF7D"/>
<path d="M24.4795 37.4714C23.6232 36.6139 22.2332 36.6139 21.3763 37.4714L20.7394 38.1084C21.5943 37.2522 21.5936 35.8653 20.7374 35.0084C19.8805 34.1529 18.4924 34.1529 17.6355 35.0091C18.4924 34.1529 18.4924 32.7647 17.6355 31.9072C16.7793 31.0496 15.3905 31.051 14.5336 31.9072C15.3905 31.051 15.3905 29.6622 14.5336 28.8045C13.6773 27.9484 12.2886 27.9484 11.4316 28.8058L9.51348 30.7233C8.6566 31.5808 8.6566 32.9683 9.51348 33.8259C10.3697 34.6822 11.7579 34.6822 12.6147 33.8259C11.7579 34.6822 11.7579 36.0709 12.6147 36.9278C13.4723 37.784 14.8604 37.784 15.7173 36.9278C14.8604 37.784 14.8604 39.1722 15.7173 40.0298C16.5742 40.886 17.9623 40.886 18.8193 40.0298L19.457 39.3914C18.6021 40.249 18.6026 41.6358 19.4589 42.4928C20.3157 43.3489 21.7039 43.3489 22.5609 42.4928L24.4796 40.5739C25.3358 39.7158 25.3358 38.3277 24.4795 37.4714Z" fill="#CBAF7D"/>
<path d="M47.6238 17.2138L36.3322 5.92091C35.8305 5.42057 35.0195 5.42057 34.5191 5.92091L30.8975 9.54248C30.3971 10.0428 30.3971 10.8539 30.8975 11.3549L42.1904 22.6472C42.6901 23.1488 43.5025 23.1488 44.0022 22.6472L47.6238 19.0249C48.1254 18.526 48.1254 17.7148 47.6238 17.2138ZM44.4052 19.7181C43.8661 20.2559 42.9944 20.2559 42.4573 19.7181C41.9197 19.1797 41.9197 18.308 42.4573 17.7703C42.9944 17.2325 43.8661 17.2325 44.4052 17.7703C44.9429 18.308 44.9423 19.1797 44.4052 19.7181Z" fill="#CBAF7D"/>
<path d="M17.1016 9.8623L13.4806 6.24074C12.9804 5.74039 12.1686 5.74039 11.6682 6.24074L0.375288 17.5336C-0.125055 18.0326 -0.125055 18.845 0.375288 19.3447L3.99694 22.9676C4.49663 23.4674 5.30963 23.4674 5.80866 22.9676L17.1016 11.6747C17.6026 11.1743 17.6026 10.3632 17.1016 9.8623ZM5.54232 20.0378C5.00457 20.5749 4.13232 20.5749 3.59448 20.0378C3.05682 19.4995 3.05682 18.6277 3.59448 18.09C4.13223 17.5523 5.00457 17.5523 5.54232 18.09C6.08007 18.6277 6.08007 19.4994 5.54232 20.0378Z" fill="#CBAF7D"/>
<path d="M37.2683 29.8259L36.5681 29.1245L29.7704 22.3268L29.3126 22.5298L28.8143 22.7097L28.7783 22.7207C28.6905 22.7484 27.8704 22.9992 26.2534 23.2281C25.3984 23.3474 24.5513 23.3622 23.7311 23.2688C23.4069 23.2327 23.0844 23.1797 22.7659 23.1101L20.1637 25.7111C18.6001 27.2747 16.054 27.2747 14.4905 25.7111C14.4356 25.6557 14.3828 25.5996 14.3338 25.5442L14.317 25.5254C13.3299 24.4061 13.0792 22.8742 13.5434 21.5447L14.544 19.9876L14.5421 19.9857L20.6435 13.885C20.8916 13.6374 21.1522 13.4066 21.4229 13.1887C19.5216 12.8154 17.9264 12.9256 17.9264 12.9256L8.25873 22.595C8.12851 24.3751 9.35101 26.3261 10.2207 27.4655C11.7856 25.9689 14.2744 25.9884 15.8121 27.5268C16.3846 28.0987 16.7451 28.8034 16.8971 29.5422C17.6373 29.6957 18.3414 30.0555 18.914 30.628C19.4865 31.2012 19.847 31.9059 19.9991 32.6454C20.7386 32.7976 21.444 33.1573 22.016 33.7299C22.3983 34.1123 22.6865 34.5534 22.8805 35.0253C23.9212 35.0124 24.9657 35.4018 25.7575 36.1929C27.3185 37.7526 27.3178 40.2929 25.7575 41.852L25.1192 42.4915L25.439 42.8114C26.2966 43.6689 27.6847 43.6689 28.5416 42.8114C29.3985 41.9551 29.3985 40.5664 28.5416 39.7094L29.1799 40.3497C30.0374 41.2059 31.4249 41.2059 32.2818 40.3497C33.1387 39.4922 33.1393 38.104 32.2818 37.2465C33.1393 38.104 34.5268 38.104 35.3837 37.2465C36.24 36.3909 36.2419 35.0021 35.3837 34.1445C36.2419 35.0021 37.6294 35.0021 38.4857 34.1445C39.3432 33.2884 39.3432 31.8995 38.4857 31.0433L37.2683 29.8259Z" fill="#CBAF7D"/>
</g>
<defs>
<clipPath id="clip0_95_196">
<rect width="48" height="48" fill="white" transform="translate(0 0.5)"/>
</clipPath>
</defs>
</svg>
