<svg width="48" height="49" viewBox="0 0 48 49" fill="none" xmlns="http://www.w3.org/2000/svg">
<path d="M5.0625 44.0938H42.9276C45.3223 44.0938 47.625 42.2958 47.625 39.2056C47.625 39.2056 47.625 16.9942 47.625 16.9004C47.6066 14.1288 45.3409 12.0312 42.9092 12.0312H30.5625V7.58281C30.5625 5.93994 29.1041 4.90625 27.3092 4.90625C27.3092 4.90625 20.466 4.90625 20.5033 4.90625C18.7459 4.90625 17.25 5.93994 17.25 7.58281V12.2188H5.09344C2.65088 12.2188 0.375 14.2917 0.375 17.0311C0.375 17.1052 0.375 39.0753 0.375 39.0753C0.375 42.1293 2.65706 44.0938 5.0625 44.0938ZM25.9177 38.3639C25.9177 38.9982 25.4036 39.5124 24.7693 39.5124H23.0466C22.4123 39.5124 21.8981 38.9982 21.8981 38.3639V38.0769H25.9177V38.3639ZM26.7791 37.2095H21.0369V36.0671H26.7791V37.2095ZM31.8068 18.9058L32.6023 19.7013L29.9589 22.3447L29.1634 21.5491L31.8068 18.9058ZM19.6875 7.53125H28.125V12.2188H19.6875V7.53125ZM24.7326 15.7683V19.5067H23.6076V15.7683H24.7326ZM23.7626 21.1391C27.159 21.0592 29.9374 23.7884 29.9374 27.1666C29.9374 28.7654 29.3151 30.2189 28.2994 31.298C27.3351 32.3225 26.7791 33.6641 26.7791 35.0711V35.1999H24.3386V30.1813H25.4871V29.3199H22.3288V30.1813H23.4772V35.1997H21.0368V35.0713C21.0368 33.6618 20.4765 32.3203 19.5118 31.2929C18.5201 30.2369 17.9048 28.8236 17.8794 27.2668C17.8258 23.9737 20.4699 21.2165 23.7626 21.1391ZM16.1932 18.9058L18.8366 21.5491L18.0411 22.3447L15.3977 19.7011L16.1932 18.9058Z" fill="#CBAF7D"/>
</svg>
