<svg width="48" height="48" viewBox="0 0 48 48" fill="none" xmlns="http://www.w3.org/2000/svg">
<path d="M25.4094 34.5996C24.9694 34.5996 24.6094 34.9516 24.6094 35.3996C24.6094 38.3756 27.0334 40.7996 30.0174 40.7996C32.9934 40.7996 35.4174 38.3756 35.4174 35.3996C35.4174 34.9516 35.0574 34.5996 34.6174 34.5996H25.4094Z" fill="#CBAF7D"/>
<path d="M9.4 40.7996H25.56C24 39.5116 23.008 37.5676 23.008 35.3996C23.008 35.1196 23.064 34.8476 23.152 34.5996H4.8C4.352 34.5996 4 34.9516 4 35.3996C4 38.3756 6.416 40.7996 9.4 40.7996Z" fill="#CBAF7D"/>
<path d="M35.4141 13.1352H43.1981C43.6381 13.1352 43.9981 12.7752 43.9981 12.3272C43.9981 9.50322 41.7181 7.19922 38.9101 7.19922C38.7341 7.19922 38.5581 7.20722 38.3901 7.22322H16.0221C12.9341 7.22322 10.4141 9.73522 10.4141 12.8232V32.9992H35.4141V13.1352ZM38.9101 8.80722C40.5581 8.80722 41.9421 9.96722 42.3021 11.5272H35.5101C35.8701 9.96722 37.2541 8.80722 38.9101 8.80722ZM22.9181 29.9912H15.6381C15.1901 29.9912 14.8381 29.6312 14.8381 29.1912C14.8381 28.7432 15.1901 28.3912 15.6381 28.3912H22.9181C23.3581 28.3912 23.7181 28.7432 23.7181 29.1912C23.7181 29.6312 23.3581 29.9912 22.9181 29.9912ZM30.1981 24.9512H15.6381C15.1901 24.9512 14.8381 24.5912 14.8381 24.1512C14.8381 23.7112 15.1901 23.3512 15.6381 23.3512H30.1981C30.6381 23.3512 30.9981 23.7112 30.9981 24.1512C30.9981 24.5912 30.6381 24.9512 30.1981 24.9512ZM30.1981 19.9112H15.6381C15.1901 19.9112 14.8381 19.5512 14.8381 19.1112C14.8381 18.6712 15.1901 18.3112 15.6381 18.3112H30.1981C30.6381 18.3112 30.9981 18.6712 30.9981 19.1112C30.9981 19.5512 30.6381 19.9112 30.1981 19.9112ZM30.1981 14.8712H15.6381C15.1901 14.8712 14.8381 14.5112 14.8381 14.0712C14.8381 13.6312 15.1901 13.2712 15.6381 13.2712H30.1981C30.6381 13.2712 30.9981 13.6312 30.9981 14.0712C30.9981 14.5112 30.6381 14.8712 30.1981 14.8712Z" fill="#CBAF7D"/>
</svg>
