<svg width="48" height="48" viewBox="0 0 48 48" fill="none" xmlns="http://www.w3.org/2000/svg">
<path d="M26.3191 21.1928C25.2791 21.0248 24.4951 20.4968 23.9991 20.0488C23.4951 20.5048 22.7191 21.0248 21.6791 21.1928C20.4151 21.3928 19.0951 21.0408 17.7431 20.1368L15.8711 22.4808C16.6951 23.1928 17.8951 24.5928 17.7111 26.6088C17.6711 27.0888 17.5191 27.6248 17.3671 28.1848C16.9751 29.5928 16.5351 31.1848 17.3991 32.6888C18.2951 34.2568 20.5191 35.5288 24.0071 36.4808C27.4951 35.5288 29.7191 34.2568 30.6151 32.6888C31.4791 31.1848 31.0391 29.5928 30.6471 28.1848C30.4951 27.6168 30.3431 27.0888 30.3031 26.6088C30.1191 24.5928 31.3191 23.1928 32.1431 22.4808L30.2711 20.1368C28.9111 21.0408 27.5831 21.3928 26.3191 21.1928Z" fill="#CBAF7D"/>
<path d="M42.7123 24.312C42.9203 24.312 43.1203 24.232 43.2803 24.08C43.5923 23.76 43.5923 23.2561 43.2803 22.944L41.1203 20.784L36.7923 16.456V4.80005C36.7923 4.35205 36.4323 4.00005 35.9923 4.00005H30.5043C30.0643 4.00005 29.7043 4.35205 29.7043 4.80005V9.36805L24.5683 4.23205C24.2563 3.92005 23.7443 3.92005 23.4323 4.23205L6.91228 20.752C6.89628 20.776 6.87228 20.8 6.84828 20.816L4.72828 22.944C4.40828 23.2561 4.40828 23.76 4.72828 24.08C5.04028 24.392 5.54428 24.392 5.85628 24.08L6.64828 23.288V38.376C6.64828 41.48 9.16828 44 12.2723 44H35.7363C38.8323 44 41.3523 41.48 41.3523 38.376V23.288L42.1443 24.08C42.3043 24.232 42.5043 24.312 42.7123 24.312ZM33.6803 23.32C33.6003 23.368 31.7123 24.5201 31.8883 26.4641C31.9203 26.8001 32.0483 27.272 32.1843 27.76C32.6083 29.296 33.1923 31.408 32.0003 33.488C30.8483 35.496 28.2963 37 24.2083 38.0881C24.1443 38.104 24.0723 38.112 24.0003 38.112C23.9283 38.112 23.8643 38.104 23.7923 38.0881C19.7043 37 17.1523 35.496 16.0003 33.488C14.8083 31.408 15.3843 29.3041 15.8163 27.76C15.9523 27.264 16.0803 26.8001 16.1123 26.4641C16.2883 24.5121 14.4003 23.36 14.3203 23.312C14.1203 23.192 13.9843 22.992 13.9443 22.768C13.9043 22.544 13.9603 22.304 14.1043 22.128L16.9683 18.536C17.2403 18.192 17.7443 18.136 18.0883 18.408C19.3043 19.368 20.4243 19.768 21.4243 19.608C22.6483 19.408 23.3283 18.424 23.3363 18.416C23.6323 17.968 24.3763 17.968 24.6723 18.416C24.6723 18.424 25.3683 19.424 26.6003 19.616C27.6003 19.768 28.7123 19.36 29.9203 18.408C30.2643 18.136 30.7683 18.192 31.0403 18.536L33.9043 22.128C34.0483 22.312 34.1043 22.544 34.0643 22.776C34.0163 23.008 33.8803 23.208 33.6803 23.32Z" fill="#CBAF7D"/>
</svg>
