<svg width="48" height="48" viewBox="0 0 48 48" fill="none" xmlns="http://www.w3.org/2000/svg">
<path d="M34.8698 22.1122L25.8057 13.0482C25.5097 12.7522 24.9738 12.7522 24.6778 13.0482L21.0777 16.6482C20.7657 16.9602 20.7657 17.4722 21.0777 17.7842L30.1417 26.8402C30.2857 26.9922 30.4938 27.0802 30.7018 27.0802C30.9178 27.0802 31.1177 26.9922 31.2697 26.8402L34.8698 23.2482C35.1817 22.9282 35.1817 22.4242 34.8698 22.1122Z" fill="#CBAF7D"/>
<path d="M43.7421 12.9592C43.8861 12.8072 43.9741 12.6072 43.9741 12.3912C43.9741 12.1832 43.8861 11.9832 43.7421 11.8312L36.0941 4.18322C35.7741 3.87122 35.2701 3.87122 34.9581 4.18322L27.0781 12.0632L35.8541 20.8392L43.7421 12.9592Z" fill="#CBAF7D"/>
<path d="M31.8572 43.1438C31.8572 42.7038 31.4972 42.3438 31.0572 42.3438H21.4172C20.9772 42.3438 20.6172 42.7038 20.6172 43.1438C20.6172 43.5838 20.9772 43.9438 21.4172 43.9438H31.0572C31.4972 43.9438 31.8572 43.5838 31.8572 43.1438Z" fill="#CBAF7D"/>
<path d="M16.9346 32.6808C17.3986 32.2088 17.3986 31.4488 16.9346 30.9848C16.7026 30.7528 16.3906 30.6328 16.0866 30.6328C15.7826 30.6328 15.4706 30.7528 15.2386 30.9848C14.7746 31.4488 14.7746 32.2168 15.2386 32.6808C15.7026 33.1528 16.4626 33.1528 16.9346 32.6808Z" fill="#CBAF7D"/>
<path d="M13.6393 33.1601C13.0633 32.0961 13.2153 30.7521 14.1113 29.8561C15.1993 28.7681 16.9753 28.7681 18.0713 29.8561C19.1593 30.9441 19.1593 32.7201 18.0713 33.8161C17.5273 34.3601 16.8073 34.6321 16.0953 34.6321C15.6393 34.6321 15.1913 34.5121 14.7753 34.2881L5.48725 43.7041C5.99125 43.4721 6.49525 43.2481 6.99125 43.0481C6.97525 43.1201 6.95125 43.1841 6.95125 43.2561C6.95925 43.6961 7.31125 44.0481 7.75125 44.0481H7.75925L18.0953 43.9441C18.5353 43.9361 18.8953 43.5761 18.8873 43.1361C18.8793 42.6961 18.5273 42.3441 18.0873 42.3441H18.0793L8.59925 42.4401C15.5913 40.0001 21.3673 40.4961 21.4393 40.4961C21.8393 40.5281 22.1913 40.2881 22.2873 39.9041C23.5913 34.9681 26.4953 29.9521 28.2553 27.2001L20.7113 19.6641C17.9593 21.4161 12.9513 24.3201 8.01525 25.6241C7.63925 25.7281 7.38325 26.0881 7.42325 26.4721C7.43125 26.5521 8.11925 34.3441 4.06325 42.7921C4.04725 42.8321 4.03925 42.8721 4.03125 42.9121L13.6393 33.1601Z" fill="#CBAF7D"/>
</svg>
