<svg width="48" height="48" viewBox="0 0 48 48" fill="none" xmlns="http://www.w3.org/2000/svg">
<path d="M32.1562 23.4949C32.1562 22.1171 31.6179 20.8274 30.6548 19.8634C30.4508 19.6594 30.2812 19.4754 30 19.3116V20.4642C30 20.98 29.5783 21.3983 29.0625 21.3983C28.5467 21.3983 28.125 20.9801 28.125 20.4642V17.9381C28.125 17.8286 28.125 17.7147 28.125 17.6009V16.3125H25.9688V17.4955C25.9688 17.6799 25.9688 17.869 25.9688 18.0419V20.4642C25.9688 20.98 25.5471 21.3983 25.0312 21.3983C24.5154 21.3983 24.0938 20.9801 24.0938 20.4642V19.3243C22.7812 20.2731 21.9375 21.8154 21.9375 23.4949V24.5625H32.1562V23.4949Z" fill="#CBAF7D"/>
<path d="M7.77057 45.7031C7.77057 46.8593 8.71116 47.8125 9.86729 47.8125H40.2188V43.6996V43.5938H9.86729C8.71116 43.5938 7.77057 44.5469 7.77057 45.7031Z" fill="#CBAF7D"/>
<path d="M11.9062 41.7188V0.1875H11.5442C9.46341 0.1875 7.78125 1.87594 7.78125 3.95672V42.3575C8.4375 41.9766 9.09778 41.7188 9.86728 41.7188H11.9062Z" fill="#CBAF7D"/>
<path d="M27.6214 5.57363L30.1875 7.4835V0.1875H23.9062V7.4835L26.4767 5.57363C26.8087 5.32453 27.2892 5.32453 27.6214 5.57363Z" fill="#CBAF7D"/>
<path d="M34.2188 26.4375H19.875V28.5938H34.2188V26.4375Z" fill="#CBAF7D"/>
<path d="M32.0625 0.1875V9.35147C32.0625 9.70528 31.8393 10.0286 31.5228 10.1869C31.2067 10.3451 30.8094 10.311 30.5263 10.0987L27.0428 7.48828L23.5599 10.0987C23.3951 10.2222 23.1951 10.2855 22.9966 10.2855C22.8542 10.2855 22.6977 10.253 22.5654 10.1869C22.249 10.0286 22.0312 9.70528 22.0312 9.35147V0.1875H13.7812V41.7188H40.2187V0.1875H32.0625ZM18 25.5154C18 24.9996 18.4437 24.5625 18.9595 24.5625H20.0625V23.4949C20.0625 20.7706 21.6563 18.3102 24.0938 17.1633V15.4129C24.0938 14.8971 24.5052 14.4374 25.021 14.4374H29.062C29.5778 14.4374 30 14.897 30 15.4129V17.1522C30.75 17.4929 31.3945 17.9577 31.9795 18.5427C33.2953 19.8599 34.0313 21.6185 34.0313 23.4949V24.5625H35.1234C35.6392 24.5625 36.0938 24.9996 36.0938 25.5154V29.5564C36.0938 30.0722 35.6392 30.4688 35.1234 30.4688H18.9595C18.4437 30.4688 18 30.0722 18 29.5564V25.5154ZM36.1527 38.5312H17.9398C17.4239 38.5312 17.0057 38.1096 17.0057 37.5938C17.0057 37.0779 17.4239 36.6562 17.9398 36.6562H36.1527C36.6685 36.6562 37.0867 37.0779 37.0867 37.5938C37.0867 38.1096 36.6685 38.5312 36.1527 38.5312ZM36.1527 34.5938H17.9398C17.4239 34.5938 17.0057 34.1721 17.0057 33.6562C17.0057 33.1404 17.4239 32.7188 17.9398 32.7188H36.1527C36.6685 32.7188 37.0867 33.1404 37.0867 33.6562C37.0867 34.1721 36.6685 34.5938 36.1527 34.5938Z" fill="#CBAF7D"/>
</svg>
