<svg width="48" height="48" viewBox="0 0 48 48" fill="none" xmlns="http://www.w3.org/2000/svg">
<path fill-rule="evenodd" clip-rule="evenodd" d="M30 12C30 14.6124 28.3304 16.8349 26 17.6586V33.748C29.4504 32.8598 32 29.7276 32 26H36C36 31.946 31.6754 36.882 26 37.834V40C26 41.1046 25.1046 42 24 42C22.8954 42 22 41.1046 22 40V37.834C16.3246 36.882 12 31.946 12 26H16C16 29.7276 18.5495 32.8598 22 33.748V17.6586C19.6696 16.8349 18 14.6124 18 12C18 8.6863 20.6862 6 24 6C27.3138 6 30 8.6863 30 12ZM24 14C25.1046 14 26 13.1046 26 12C26 10.8954 25.1046 10 24 10C22.8954 10 22 10.8954 22 12C22 13.1046 22.8954 14 24 14Z" fill="#CBAF7D"/>
</svg>
