<svg width="160" height="61" viewBox="0 0 160 61" fill="none" xmlns="http://www.w3.org/2000/svg">
<path d="M28.0303 59.4031C26.4202 59.366 24.8438 58.9342 23.4397 58.1454L5.93135 48.2978C4.63006 47.5605 3.53989 46.5015 2.76526 45.2221C1.99063 43.9426 1.5575 42.4858 1.50736 40.991L0.906968 20.5879C0.869659 19.0863 1.22023 17.6004 1.92483 16.2738C2.62942 14.9472 3.66422 13.8247 4.92927 13.0148L21.8896 2.16346C23.39 1.20098 25.1241 0.665143 26.9059 0.613433C28.6877 0.561724 30.4499 0.996092 32.0036 1.86994L49.5744 11.7364C50.8787 12.4749 51.9711 13.5365 52.7464 14.8193C53.5218 16.102 53.954 17.5627 54.0014 19.0608L54.5895 39.3937C54.6247 40.8884 54.2757 42.3672 53.5759 43.6884C52.876 45.0096 51.8487 46.129 50.5923 46.9395L33.561 57.8381C31.9152 58.9006 29.9888 59.4457 28.0303 59.4031ZM27.3625 3.05745C25.8928 3.02475 24.4465 3.42993 23.2077 4.22145L6.23658 15.0865C5.33129 15.6696 4.5909 16.4755 4.08633 17.4268C3.58177 18.3781 3.32994 19.4431 3.35496 20.5196L3.94487 40.9224C3.97925 41.9983 4.29012 43.0472 4.84754 43.9681C5.40495 44.889 6.19013 45.6508 7.12742 46.1801L24.6358 56.0277C25.8043 56.6807 27.1283 57.0039 28.4663 56.9627C29.8043 56.9215 31.1059 56.5175 32.232 55.7938L49.2634 44.8952C50.1668 44.3108 50.9051 43.5044 51.4078 42.5531C51.9105 41.6018 52.1607 40.5374 52.1345 39.4618L51.5639 19.1294C51.5305 18.0532 51.2204 17.0039 50.6636 16.0824C50.1068 15.1609 49.3221 14.3984 48.385 13.8683L30.8137 4.01927C29.7599 3.41987 28.5745 3.08952 27.3625 3.05745Z" fill="#CBAF7D"/>
<path d="M17.5586 20.3248L11.042 32.4857C11.3286 32.8884 13.1832 35.3939 16.5399 35.7377C20.7627 36.1736 23.4113 32.7947 23.5561 32.6041C22.2224 30.167 20.8864 27.7298 19.548 25.2924L17.7811 27.6021L20.6424 32.2841C19.4656 33.1463 18.0136 33.5473 16.5611 33.4112C15.4951 33.2929 14.483 32.8801 13.6383 32.219C15.4209 28.9382 17.2046 25.6576 18.9895 22.377C20.3755 22.1802 21.7887 22.3891 23.0585 22.9784C24.5851 23.718 25.8082 24.9638 26.5198 26.5037L26.3594 42.8133L37.4148 42.9152L37.436 40.5886L28.1263 40.5036L28.2679 26.5382C28.9926 25.0564 30.1908 23.8588 31.673 23.1349C33.1551 22.4111 34.8364 22.2024 36.4505 22.5419L41.595 32.4792C40.5561 33.1745 39.3439 33.5664 38.0946 33.6107C36.6471 33.6524 35.2239 33.2322 34.0311 32.411L36.9845 27.7802C36.607 26.8083 36.226 25.8361 35.8487 24.8606L31.1156 32.9696C31.9062 33.8903 32.8845 34.6314 33.985 35.1431C35.0854 35.6549 36.2825 35.9255 37.496 35.9368C38.7096 35.9481 39.9115 35.6999 41.0213 35.2088C42.1311 34.7176 43.123 33.9949 43.9307 33.0891C42.0267 29.0042 40.1208 24.9122 38.213 20.813C36.2472 20.1016 34.1036 20.0471 32.1042 20.6576C30.1047 21.2682 28.3573 22.5109 27.1242 24.1992C26.18 22.59 24.7307 21.3377 23.0015 20.6371C21.2723 19.9365 19.3601 19.8268 17.5621 20.325L17.5586 20.3248Z" fill="#CBAF7D"/>
<path d="M38.6611 16.4214H17.1284V18.7483H38.6611V16.4214Z" fill="#CBAF7D"/>
<path d="M25.4666 40.4817H17.9023V42.8086H25.4666V40.4817Z" fill="#CBAF7D"/>
<line x1="64.9316" y1="2.18557e-08" x2="64.9316" y2="60.3623" stroke="white"/>
<path d="M112.748 47.6386C112.748 48.5176 112.585 49.3369 112.26 50.0965C111.934 50.8561 111.489 51.5181 110.925 52.0823C110.371 52.6358 109.715 53.0698 108.955 53.3845C108.196 53.6992 107.382 53.8566 106.514 53.8566C105.689 53.8566 104.951 53.7209 104.3 53.4496C103.66 53.1675 103.112 52.7823 102.656 52.2939C102.211 51.7948 101.869 51.2034 101.63 50.5197C101.403 49.8252 101.289 49.0656 101.289 48.2409C101.289 47.3185 101.446 46.4775 101.761 45.7179C102.086 44.9474 102.526 44.2909 103.079 43.7483C103.643 43.1948 104.305 42.7662 105.065 42.4624C105.825 42.1585 106.638 42.0066 107.507 42.0066C108.331 42.0066 109.069 42.1422 109.72 42.4135C110.371 42.6848 110.919 43.0701 111.364 43.5692C111.809 44.0575 112.151 44.649 112.39 45.3435C112.629 46.038 112.748 46.803 112.748 47.6386ZM110.323 47.8176C110.323 47.2534 110.247 46.6999 110.095 46.1573C109.954 45.6148 109.737 45.1319 109.444 44.7086C109.161 44.2746 108.798 43.9273 108.353 43.6669C107.919 43.3956 107.409 43.26 106.823 43.26C106.541 43.26 106.226 43.3088 105.879 43.4065C105.532 43.4933 105.266 43.5964 105.081 43.7157C104.691 44.1823 104.365 44.7575 104.105 45.4411C103.844 46.1248 103.714 46.9983 103.714 48.0618C103.714 48.6369 103.784 49.1958 103.926 49.7384C104.067 50.281 104.284 50.7639 104.577 51.1871C104.87 51.6103 105.233 51.9521 105.667 52.2126C106.101 52.473 106.611 52.6032 107.197 52.6032C107.479 52.6032 107.794 52.5598 108.141 52.473C108.499 52.3753 108.771 52.2668 108.955 52.1475C109.151 51.9196 109.33 51.6646 109.492 51.3824C109.666 51.1003 109.813 50.7856 109.932 50.4383C110.051 50.0911 110.143 49.7004 110.209 49.2663C110.285 48.8323 110.323 48.3494 110.323 47.8176Z" fill="white"/>
<path d="M100.047 44.611C99.9927 44.6327 99.9276 44.649 99.8516 44.6598C99.7757 44.6707 99.6997 44.6761 99.6237 44.6761C99.4501 44.6761 99.3199 44.6544 99.2331 44.611C99.0486 44.0793 98.7827 43.7266 98.4355 43.553C98.0882 43.3685 97.6379 43.2762 97.0845 43.2762C96.9543 43.2762 96.7969 43.2925 96.6124 43.3251C96.4388 43.3468 96.2597 43.3793 96.0753 43.4227C95.9016 43.4661 95.7389 43.5204 95.5869 43.5855C95.435 43.6398 95.3102 43.6994 95.2126 43.7646C94.963 44.0033 94.7405 44.3017 94.5452 44.6598C94.3607 45.0071 94.2088 45.376 94.0894 45.7667C93.9701 46.1573 93.8778 46.548 93.8127 46.9387C93.7585 47.3293 93.7313 47.682 93.7313 47.9967C93.7313 48.6044 93.8019 49.185 93.9429 49.7384C94.0949 50.2918 94.3227 50.7801 94.6266 51.2034C94.9304 51.6266 95.3157 51.963 95.7823 52.2126C96.2489 52.4622 96.7969 52.5869 97.4263 52.5869C97.5782 52.5869 97.7518 52.5707 97.9472 52.5381C98.1425 52.5056 98.3324 52.4676 98.5169 52.4242C98.7122 52.3808 98.8913 52.3319 99.054 52.2777C99.2168 52.2234 99.347 52.1692 99.4447 52.1149C99.5749 52.1692 99.6889 52.2777 99.7865 52.4404C99.895 52.5924 99.9493 52.7551 99.9493 52.9288C99.3525 53.2543 98.7665 53.4876 98.1913 53.6287C97.6162 53.7806 97.0194 53.8566 96.4008 53.8566C95.5652 53.8566 94.8273 53.7155 94.1871 53.4334C93.5577 53.1512 93.0314 52.7606 92.6082 52.2614C92.185 51.7514 91.8648 51.1545 91.6478 50.4709C91.4308 49.7764 91.3223 49.0168 91.3223 48.192C91.3223 47.3456 91.5067 46.548 91.8757 45.7992C92.2447 45.0505 92.7275 44.394 93.3244 43.8297C93.9321 43.2654 94.6266 42.8205 95.4079 42.4949C96.1892 42.1694 96.9922 42.0066 97.817 42.0066C97.9689 42.0066 98.1479 42.012 98.3541 42.0229C98.5711 42.0337 98.7827 42.05 98.9889 42.0717C99.206 42.0934 99.4067 42.1205 99.5912 42.1531C99.7757 42.1748 99.9167 42.1965 100.014 42.2182L100.047 44.611Z" fill="white"/>
<path d="M85.4515 47.427C85.4515 47.5029 85.446 47.5789 85.4352 47.6549C85.4243 47.72 85.4081 47.7797 85.3863 47.8339C85.2127 47.8339 85.0228 47.8719 84.8166 47.9479C84.6213 48.013 84.4206 48.1486 84.2144 48.3548C84.095 48.4742 83.9919 48.6315 83.9051 48.8268C83.8291 49.0222 83.7423 49.2501 83.6447 49.5105C83.5579 49.7601 83.4439 50.0368 83.3028 50.3407C83.1726 50.6336 82.999 50.9429 82.782 51.2685C82.923 51.4312 83.0804 51.6049 83.254 51.7893C83.4276 51.9738 83.6067 52.1475 83.7912 52.3102C83.9756 52.473 84.171 52.6086 84.3771 52.7172C84.5833 52.8257 84.8004 52.8799 85.0282 52.8799C85.0825 52.8799 85.1368 52.8799 85.191 52.8799C85.2453 52.8799 85.2995 52.8745 85.3538 52.8637C85.3755 52.9179 85.3918 52.983 85.4026 53.059C85.4135 53.1241 85.4189 53.1946 85.4189 53.2706C85.4189 53.3466 85.4135 53.4225 85.4026 53.4985C85.3918 53.5636 85.3755 53.6233 85.3538 53.6775C85.2887 53.6992 85.1856 53.7209 85.0445 53.7426C84.9143 53.7643 84.7732 53.7806 84.6213 53.7915C84.4802 53.8132 84.3392 53.8295 84.1981 53.8403C84.057 53.8512 83.9431 53.8566 83.8563 53.8566C83.4982 53.8566 83.2052 53.8457 82.9773 53.824C82.7603 53.8132 82.5649 53.7752 82.3913 53.7101C82.2177 53.645 82.0495 53.5473 81.8867 53.4171C81.7239 53.2869 81.5232 53.1024 81.2844 52.8637C80.9046 53.1458 80.4706 53.3845 79.9822 53.5799C79.4939 53.7643 78.9351 53.8566 78.3057 53.8566C77.7631 53.8566 77.2476 53.7969 76.7593 53.6775C76.2818 53.5582 75.8641 53.3628 75.506 53.0915C75.1479 52.8203 74.8603 52.4676 74.6433 52.0335C74.4371 51.5994 74.334 51.0677 74.334 50.4383C74.334 50.1019 74.3991 49.7872 74.5293 49.4942C74.6704 49.1904 74.8549 48.9082 75.0827 48.6478C75.3215 48.3765 75.5873 48.1269 75.8803 47.899C76.1842 47.6603 76.4989 47.4324 76.8244 47.2154C76.4989 46.7379 76.2384 46.293 76.0431 45.8806C75.8478 45.4683 75.7501 45.0071 75.7501 44.497C75.7501 44.0304 75.8586 43.6398 76.0757 43.3251C76.3036 42.9995 76.5857 42.7391 76.9221 42.5437C77.2693 42.3484 77.6492 42.2128 78.0615 42.1368C78.4739 42.05 78.8645 42.0066 79.2335 42.0066C79.5916 42.0066 79.9388 42.0391 80.2752 42.1043C80.6116 42.1694 80.9101 42.2833 81.1705 42.4461C81.4309 42.598 81.6371 42.815 81.789 43.0972C81.941 43.3685 82.0169 43.7157 82.0169 44.1389C82.0169 44.4645 81.941 44.7629 81.789 45.0342C81.6371 45.3055 81.4364 45.5605 81.1868 45.7992C80.948 46.038 80.6713 46.2713 80.3566 46.4992C80.0528 46.7162 79.7381 46.9278 79.4125 47.134C79.8032 47.6549 80.2101 48.1975 80.6333 48.7617C81.0566 49.3152 81.496 49.8469 81.9518 50.3569C82.1037 50.0748 82.2231 49.7818 82.3099 49.478C82.3967 49.1633 82.4401 48.854 82.4401 48.5501C82.4401 48.268 82.3696 48.0835 82.2285 47.9967C82.0875 47.9099 81.9247 47.8556 81.7402 47.8339C81.7185 47.7797 81.7022 47.72 81.6914 47.6549C81.6805 47.5789 81.6751 47.5029 81.6751 47.427C81.6751 47.351 81.6805 47.2805 81.6914 47.2154C81.7022 47.1394 81.7185 47.0743 81.7402 47.0201H82.2285C82.4781 47.0201 82.7114 47.0309 82.9285 47.0526C83.1455 47.0635 83.3408 47.0689 83.5144 47.0689C83.7098 47.0689 83.9268 47.0635 84.1655 47.0526C84.4151 47.0309 84.6484 47.0201 84.8655 47.0201H85.3863C85.4081 47.0743 85.4243 47.1394 85.4352 47.2154C85.446 47.2805 85.4515 47.351 85.4515 47.427ZM80.2915 44.1552C80.2915 43.808 80.183 43.5421 79.966 43.3576C79.7598 43.1731 79.4831 43.0809 79.1358 43.0809C79.0273 43.0809 78.9025 43.0918 78.7614 43.1135C78.6204 43.1352 78.5064 43.1677 78.4196 43.2111C78.2677 43.2979 78.1212 43.439 77.9801 43.6343C77.8391 43.8297 77.7685 44.0467 77.7685 44.2854C77.7685 44.4808 77.8499 44.7412 78.0127 45.0668C78.1755 45.3923 78.3816 45.7179 78.6312 46.0434C79.0978 45.7287 79.4885 45.4249 79.8032 45.1319C80.1287 44.828 80.2915 44.5025 80.2915 44.1552ZM80.4706 52.0172C80.2318 51.7459 79.9822 51.4529 79.7218 51.1383C79.4722 50.8236 79.2226 50.5034 78.973 50.1779C78.7343 49.8523 78.501 49.5376 78.2731 49.2338C78.0452 48.9299 77.8445 48.6532 77.6709 48.4036C77.3887 48.6641 77.1554 48.9408 76.9709 49.2338C76.7973 49.5268 76.7105 49.8469 76.7105 50.1942C76.7105 50.6933 76.7919 51.0948 76.9546 51.3987C77.1174 51.6917 77.3182 51.9196 77.5569 52.0823C77.7956 52.2451 78.0507 52.3536 78.322 52.4079C78.5932 52.4622 78.8374 52.4893 79.0544 52.4893C79.2932 52.4893 79.5319 52.4513 79.7706 52.3753C80.0094 52.2885 80.2427 52.1692 80.4706 52.0172Z" fill="white"/>
<path d="M160 35.5718C160 35.6369 159.995 35.7074 159.984 35.7834C159.973 35.8594 159.957 35.9245 159.935 35.9787H159.463C159.376 35.9787 159.257 35.9733 159.105 35.9624C158.964 35.9624 158.806 35.9624 158.633 35.9624C158.459 35.9624 158.28 35.957 158.096 35.9462C157.922 35.9462 157.765 35.9462 157.623 35.9462C157.482 35.9462 157.303 35.9462 157.086 35.9462C156.869 35.957 156.652 35.9624 156.435 35.9624C156.218 35.9624 156.017 35.9624 155.833 35.9624C155.659 35.9733 155.535 35.9787 155.459 35.9787H154.987C154.965 35.9245 154.949 35.8594 154.938 35.7834C154.927 35.6966 154.921 35.626 154.921 35.5718C154.921 35.5067 154.921 35.4361 154.921 35.3602C154.932 35.2842 154.949 35.2191 154.97 35.1648C155.068 35.154 155.182 35.1323 155.312 35.0997C155.442 35.0672 155.567 35.0292 155.686 34.9858C155.806 34.9315 155.904 34.8664 155.979 34.7905C156.066 34.7145 156.11 34.6277 156.11 34.53C156.11 34.3455 156.061 34.096 155.963 33.7813C155.876 33.4666 155.757 33.0651 155.605 32.5767L155.377 31.8768H151.731L151.471 32.6093C151.286 33.1193 151.145 33.5425 151.047 33.8789C150.961 34.2153 150.917 34.4541 150.917 34.5951C150.917 34.682 150.961 34.7579 151.047 34.823C151.145 34.8881 151.254 34.9478 151.373 35.0021C151.492 35.0455 151.612 35.0835 151.731 35.116C151.85 35.1377 151.943 35.154 152.008 35.1648C152.029 35.2191 152.04 35.2896 152.04 35.3765C152.051 35.4524 152.057 35.5175 152.057 35.5718C152.057 35.6369 152.051 35.7074 152.04 35.7834C152.04 35.8594 152.029 35.9245 152.008 35.9787H151.601C151.536 35.9787 151.411 35.9733 151.226 35.9624C151.053 35.9624 150.858 35.9624 150.64 35.9624C150.434 35.9624 150.228 35.957 150.022 35.9462C149.827 35.9462 149.669 35.9462 149.55 35.9462C149.268 35.9462 148.996 35.9516 148.736 35.9624C148.486 35.9733 148.291 35.9787 148.15 35.9787H147.743C147.721 35.9245 147.705 35.8594 147.694 35.7834C147.683 35.6966 147.678 35.626 147.678 35.5718C147.678 35.5067 147.683 35.4361 147.694 35.3602C147.705 35.2842 147.721 35.2191 147.743 35.1648C147.841 35.1431 147.987 35.1106 148.183 35.0672C148.389 35.0129 148.568 34.9098 148.72 34.7579C148.785 34.6928 148.877 34.5572 148.996 34.351C149.116 34.1339 149.235 33.9061 149.355 33.6673C149.474 33.4177 149.582 33.1844 149.68 32.9674C149.789 32.7504 149.859 32.593 149.892 32.4953L153.098 24.5194L154.938 24.2915L157.965 32.593C158.15 33.1139 158.318 33.5425 158.47 33.8789C158.622 34.2153 158.812 34.4975 159.04 34.7254C159.159 34.8447 159.305 34.9424 159.479 35.0184C159.664 35.0943 159.816 35.1431 159.935 35.1648C159.957 35.2191 159.973 35.2896 159.984 35.3765C159.995 35.4524 160 35.5175 160 35.5718ZM154.059 27.8888C153.961 27.6067 153.885 27.33 153.831 27.0587C153.777 26.7765 153.728 26.5486 153.684 26.375C153.641 26.5486 153.576 26.7765 153.489 27.0587C153.413 27.33 153.315 27.6175 153.196 27.9214L152.187 30.656H154.97L154.059 27.8888Z" fill="white"/>
<path d="M147.368 35.9784C147.227 35.9784 147.043 35.9729 146.815 35.9621C146.598 35.9621 146.364 35.9621 146.115 35.9621C145.865 35.9621 145.61 35.9567 145.35 35.9458C145.089 35.9458 144.856 35.9458 144.65 35.9458H141.362C141.069 35.9458 140.787 35.9512 140.515 35.9621C140.244 35.9729 140 35.9784 139.783 35.9784H139.148C139.126 35.9241 139.11 35.8644 139.099 35.7993C139.088 35.7234 139.083 35.6474 139.083 35.5714C139.083 35.4955 139.088 35.4249 139.099 35.3598C139.11 35.2839 139.126 35.2188 139.148 35.1645C139.582 35.1211 139.897 35.0017 140.092 34.8064C140.168 34.7304 140.228 34.6165 140.271 34.4646C140.326 34.3018 140.358 34.1282 140.369 33.9437C140.391 33.7484 140.401 33.5476 140.401 33.3414C140.412 33.1244 140.418 32.9128 140.418 32.7066L140.467 27.7257C140.467 27.3133 140.461 26.9281 140.45 26.57C140.439 26.2119 140.353 25.9515 140.19 25.7887C140.103 25.7019 139.984 25.6259 139.832 25.5608C139.68 25.4957 139.49 25.4523 139.262 25.4306C139.24 25.3763 139.224 25.3166 139.213 25.2515C139.202 25.1756 139.197 25.0996 139.197 25.0236C139.197 24.9477 139.202 24.8771 139.213 24.812C139.224 24.7361 139.24 24.671 139.262 24.6167H139.848C140.141 24.6167 140.456 24.6221 140.792 24.633C141.129 24.6438 141.405 24.6493 141.622 24.6493C141.861 24.6493 142.132 24.6438 142.436 24.633C142.74 24.6221 143.028 24.6167 143.299 24.6167H143.95C143.972 24.671 143.988 24.7361 143.999 24.812C144.01 24.8771 144.015 24.9477 144.015 25.0236C144.015 25.0996 144.01 25.1756 143.999 25.2515C143.988 25.3166 143.972 25.3763 143.95 25.4306C143.516 25.474 143.201 25.5933 143.006 25.7887C142.843 25.9515 142.756 26.2119 142.745 26.57C142.735 26.9281 142.729 27.3133 142.729 27.7257L142.697 32.2997C142.686 32.9182 142.691 33.4337 142.713 33.846C142.735 34.2475 142.767 34.47 142.811 34.5134C142.865 34.5677 142.979 34.6111 143.152 34.6436C143.337 34.6762 143.527 34.7033 143.722 34.725C143.928 34.7359 144.118 34.7467 144.292 34.7576C144.476 34.7576 144.601 34.7576 144.666 34.7576C144.97 34.7576 145.236 34.7521 145.464 34.7413C145.702 34.7196 145.914 34.6653 146.099 34.5785C146.283 34.4917 146.44 34.3615 146.571 34.1878C146.712 34.0142 146.842 33.7701 146.961 33.4554C147.07 33.412 147.2 33.3903 147.352 33.3903C147.439 33.3903 147.504 33.3957 147.547 33.4065C147.602 33.4174 147.656 33.4337 147.71 33.4554L147.368 35.9784Z" fill="white"/>
<path d="M137.594 30.0046C137.594 30.8835 137.431 31.7028 137.105 32.4625C136.78 33.2221 136.335 33.884 135.771 34.4483C135.217 35.0017 134.561 35.4358 133.801 35.7505C133.041 36.0652 132.227 36.2226 131.359 36.2226C130.535 36.2226 129.797 36.0869 129.146 35.8156C128.505 35.5335 127.957 35.1482 127.502 34.6599C127.057 34.1607 126.715 33.5693 126.476 32.8857C126.248 32.1912 126.134 31.4316 126.134 30.6068C126.134 29.6844 126.292 28.8434 126.606 28.0838C126.932 27.3134 127.371 26.6568 127.925 26.1142C128.489 25.5608 129.151 25.1322 129.911 24.8283C130.67 24.5245 131.484 24.3726 132.352 24.3726C133.177 24.3726 133.915 24.5082 134.566 24.7795C135.217 25.0508 135.765 25.436 136.21 25.9352C136.655 26.4235 136.997 27.0149 137.235 27.7094C137.474 28.4039 137.594 29.169 137.594 30.0046ZM135.168 30.1836C135.168 29.6193 135.092 29.0659 134.94 28.5233C134.799 27.9807 134.582 27.4978 134.289 27.0746C134.007 26.6406 133.644 26.2933 133.199 26.0329C132.765 25.7616 132.255 25.6259 131.669 25.6259C131.386 25.6259 131.072 25.6748 130.725 25.7724C130.377 25.8592 130.111 25.9623 129.927 26.0817C129.536 26.5483 129.211 27.1235 128.95 27.8071C128.69 28.4908 128.56 29.3643 128.56 30.4278C128.56 31.0029 128.63 31.5618 128.771 32.1044C128.912 32.6469 129.129 33.1298 129.422 33.553C129.715 33.9763 130.079 34.3181 130.513 34.5785C130.947 34.839 131.457 34.9692 132.043 34.9692C132.325 34.9692 132.64 34.9258 132.987 34.839C133.345 34.7413 133.616 34.6328 133.801 34.5134C133.996 34.2855 134.175 34.0305 134.338 33.7484C134.512 33.4662 134.658 33.1515 134.778 32.8043C134.897 32.457 134.989 32.0664 135.054 31.6323C135.13 31.1982 135.168 30.7153 135.168 30.1836Z" fill="white"/>
<path d="M125.29 35.5714C125.29 35.6474 125.285 35.7234 125.274 35.7993C125.263 35.8644 125.247 35.9241 125.225 35.9784H124.867C124.78 35.9784 124.65 35.9729 124.476 35.9621C124.303 35.9621 124.113 35.9621 123.907 35.9621C123.711 35.9621 123.511 35.9567 123.304 35.9458C123.109 35.9458 122.941 35.9458 122.8 35.9458C122.659 35.9458 122.485 35.9458 122.279 35.9458C122.084 35.9567 121.883 35.9621 121.677 35.9621C121.471 35.9621 121.281 35.9621 121.107 35.9621C120.944 35.9729 120.825 35.9784 120.749 35.9784H120.375C120.353 35.9241 120.337 35.8644 120.326 35.7993C120.315 35.7234 120.309 35.6474 120.309 35.5714C120.309 35.3978 120.331 35.2676 120.375 35.1808C120.689 35.1374 120.944 35.0668 121.14 34.9692C121.335 34.8607 121.433 34.649 121.433 34.3343C121.433 34.1824 121.427 34.0468 121.416 33.9274C121.416 33.7972 121.411 33.667 121.4 33.5367C121.389 33.3957 121.373 33.2492 121.351 33.0973C121.34 32.9453 121.319 32.7663 121.286 32.5601L120.651 28.2791C120.63 28.1381 120.608 27.9861 120.586 27.8234C120.575 27.6497 120.564 27.487 120.554 27.335C120.543 27.1723 120.532 27.0366 120.521 26.9281C120.51 26.8087 120.505 26.7219 120.505 26.6677C120.505 26.7111 120.494 26.7925 120.472 26.9118C120.45 27.0312 120.423 27.1668 120.391 27.3188C120.358 27.4707 120.32 27.6335 120.277 27.8071C120.233 27.9699 120.19 28.1272 120.147 28.2791L118.617 33.2275C118.551 33.4228 118.47 33.6453 118.372 33.8949C118.286 34.1336 118.188 34.3669 118.079 34.5948C117.982 34.8227 117.884 35.0343 117.786 35.2296C117.689 35.4141 117.613 35.5497 117.559 35.6365C117.309 35.821 117.005 35.9458 116.647 36.0109C116.289 36.076 115.974 36.1086 115.703 36.1086L113.457 28.1652C113.424 28.0458 113.392 27.9102 113.359 27.7583C113.326 27.5955 113.294 27.4436 113.261 27.3025C113.229 27.1506 113.202 27.0149 113.18 26.8955C113.158 26.7762 113.142 26.7002 113.131 26.6677C113.131 26.7002 113.126 26.7762 113.115 26.8955C113.115 27.0149 113.104 27.1506 113.082 27.3025C113.071 27.4436 113.055 27.5955 113.033 27.7583C113.023 27.9102 113.006 28.0458 112.985 28.1652L112.203 32.6252C112.182 32.7229 112.16 32.8531 112.138 33.0159C112.127 33.1678 112.111 33.3306 112.089 33.5042C112.078 33.667 112.068 33.8297 112.057 33.9925C112.046 34.1553 112.04 34.2855 112.04 34.3832C112.04 34.546 112.068 34.6707 112.122 34.7576C112.176 34.8444 112.247 34.9149 112.333 34.9692C112.431 35.0234 112.54 35.0614 112.659 35.0831C112.789 35.1048 112.925 35.1319 113.066 35.1645C113.109 35.273 113.131 35.4087 113.131 35.5714C113.131 35.6474 113.126 35.7288 113.115 35.8156C113.104 35.8916 113.088 35.9458 113.066 35.9784H112.48C112.415 35.9784 112.301 35.9729 112.138 35.9621C111.986 35.9621 111.818 35.9621 111.634 35.9621C111.449 35.9621 111.265 35.9567 111.08 35.9458C110.906 35.9458 110.76 35.9458 110.641 35.9458C110.358 35.9458 110.109 35.9512 109.892 35.9621C109.675 35.9729 109.496 35.9784 109.355 35.9784H108.818C108.774 35.8699 108.752 35.7342 108.752 35.5714C108.752 35.4955 108.758 35.4195 108.769 35.3435C108.78 35.2567 108.796 35.1971 108.818 35.1645C108.969 35.1428 109.154 35.094 109.371 35.018C109.599 34.9312 109.762 34.8389 109.859 34.7413C109.924 34.6762 109.99 34.5622 110.055 34.3995C110.12 34.2367 110.179 34.0522 110.234 33.846C110.299 33.6398 110.353 33.4282 110.396 33.2112C110.451 32.9942 110.494 32.7988 110.527 32.6252L111.406 27.8559C111.417 27.7908 111.433 27.6877 111.454 27.5466C111.476 27.4056 111.498 27.2536 111.52 27.0909C111.552 26.9281 111.574 26.7653 111.585 26.6025C111.606 26.4398 111.617 26.2987 111.617 26.1793C111.617 25.8972 111.514 25.7127 111.308 25.6259C111.113 25.5391 110.906 25.474 110.689 25.4306C110.646 25.3221 110.624 25.1864 110.624 25.0236C110.624 24.9477 110.63 24.8717 110.641 24.7958C110.651 24.7089 110.668 24.6493 110.689 24.6167H111.145C111.373 24.6167 111.628 24.6221 111.91 24.633C112.192 24.6438 112.475 24.6493 112.757 24.6493C113.039 24.6493 113.299 24.6493 113.538 24.6493C113.777 24.6384 114.005 24.633 114.222 24.633H114.694L116.663 31.5346C116.696 31.6431 116.728 31.7842 116.761 31.9578C116.804 32.1315 116.842 32.3051 116.875 32.4787C116.918 32.6415 116.951 32.7988 116.973 32.9508C117.005 33.0918 117.021 33.1841 117.021 33.2275C117.032 33.1841 117.048 33.0918 117.07 32.9508C117.103 32.8097 117.135 32.6523 117.168 32.4787C117.2 32.3051 117.233 32.1315 117.266 31.9578C117.309 31.7842 117.347 31.6431 117.379 31.5346L119.544 24.633H120.082C120.233 24.633 120.445 24.6384 120.716 24.6493C120.988 24.6493 121.232 24.6493 121.449 24.6493C121.753 24.6493 122.057 24.6438 122.36 24.633C122.664 24.6221 122.908 24.6167 123.093 24.6167H123.744C123.787 24.7252 123.809 24.8392 123.809 24.9585C123.809 25.0345 123.804 25.1213 123.793 25.219C123.782 25.3166 123.766 25.3817 123.744 25.4143C123.646 25.4251 123.538 25.4469 123.418 25.4794C123.299 25.5011 123.185 25.5391 123.077 25.5933C122.968 25.6368 122.876 25.7019 122.8 25.7887C122.724 25.8755 122.686 25.984 122.686 26.1142C122.686 26.3855 122.697 26.6514 122.718 26.9118C122.74 27.1614 122.784 27.4815 122.849 27.8722L123.614 32.5927C123.625 32.6903 123.646 32.8422 123.679 33.0484C123.722 33.2546 123.771 33.4716 123.825 33.6995C123.88 33.9166 123.939 34.1227 124.004 34.3181C124.08 34.5134 124.156 34.649 124.232 34.725C124.395 34.8878 124.563 35.0017 124.737 35.0668C124.91 35.1211 125.073 35.1591 125.225 35.1808C125.247 35.235 125.263 35.2947 125.274 35.3598C125.285 35.4249 125.29 35.4955 125.29 35.5714Z" fill="white"/>
<path d="M107.706 35.9785C107.544 35.9785 107.348 35.9731 107.12 35.9623C106.893 35.9623 106.654 35.9568 106.404 35.946C106.155 35.946 105.905 35.946 105.655 35.946C105.417 35.946 105.2 35.946 105.004 35.946H101.765C101.45 35.946 101.125 35.9514 100.789 35.9623C100.452 35.9731 100.154 35.9785 99.8933 35.9785H99.5514C99.5297 35.9243 99.5135 35.8646 99.5026 35.7995C99.4918 35.7235 99.4863 35.6476 99.4863 35.5716C99.4863 35.4956 99.4918 35.4251 99.5026 35.36C99.5135 35.284 99.5297 35.2189 99.5514 35.1647C99.9855 35.1213 100.3 35.0019 100.496 34.8066C100.571 34.7306 100.631 34.6167 100.675 34.4647C100.729 34.302 100.761 34.1283 100.772 33.9439C100.794 33.7485 100.805 33.5478 100.805 33.3416C100.816 33.1246 100.821 32.9129 100.821 32.7068L100.87 27.7259C100.87 27.5197 100.864 27.3135 100.854 27.1073C100.843 26.9011 100.827 26.7112 100.805 26.5376C100.783 26.3531 100.756 26.1958 100.723 26.0656C100.691 25.9353 100.647 25.8431 100.593 25.7888C100.506 25.702 100.387 25.6261 100.235 25.561C100.083 25.4958 99.8933 25.4524 99.6654 25.4307C99.6437 25.3765 99.6274 25.3168 99.6165 25.2517C99.6057 25.1757 99.6003 25.0998 99.6003 25.0238C99.6003 24.9478 99.6057 24.8773 99.6165 24.8122C99.6274 24.7362 99.6437 24.6711 99.6654 24.6169H100.251C100.436 24.6169 100.68 24.6223 100.984 24.6331C101.288 24.644 101.581 24.6494 101.863 24.6494H106.095C106.236 24.6494 106.399 24.6494 106.583 24.6494C106.779 24.6386 106.963 24.6331 107.137 24.6331C107.321 24.6223 107.484 24.6169 107.625 24.6169C107.777 24.606 107.885 24.6006 107.951 24.6006L107.999 27.0259C107.945 27.0476 107.88 27.0639 107.804 27.0748C107.728 27.0856 107.652 27.091 107.576 27.091C107.403 27.091 107.272 27.0693 107.186 27.0259C107.12 26.7546 107.034 26.5376 106.925 26.3748C106.827 26.2121 106.697 26.0873 106.534 26.0004C106.372 25.9136 106.182 25.8594 105.965 25.8377C105.748 25.816 105.498 25.8051 105.216 25.8051C105.118 25.8051 104.983 25.8105 104.809 25.8214C104.646 25.8214 104.467 25.8268 104.272 25.8377C104.077 25.8377 103.881 25.8431 103.686 25.854C103.491 25.854 103.317 25.854 103.165 25.854C103.176 26.0276 103.17 26.2338 103.149 26.4725C103.138 26.7112 103.132 27.0042 103.132 27.3515L103.116 29.5164C103.236 29.5272 103.355 29.5327 103.474 29.5327H104.223C104.462 29.5327 104.679 29.5218 104.874 29.5001C105.08 29.4675 105.259 29.4079 105.411 29.3211C105.563 29.2234 105.688 29.0932 105.786 28.9304C105.894 28.7676 105.976 28.556 106.03 28.2956C106.084 28.2739 106.149 28.2576 106.225 28.2467C106.301 28.2359 106.377 28.2305 106.453 28.2305C106.627 28.2305 106.757 28.2522 106.844 28.2956V28.5723C106.844 28.6917 106.833 28.8653 106.811 29.0932C106.8 29.3211 106.795 29.652 106.795 30.0861C106.795 30.5419 106.8 30.9 106.811 31.1604C106.833 31.4208 106.844 31.589 106.844 31.665V31.9417C106.789 31.9634 106.724 31.9797 106.648 31.9906C106.572 32.0014 106.496 32.0068 106.421 32.0068C106.247 32.0068 106.117 31.9851 106.03 31.9417C105.976 31.6704 105.894 31.4588 105.786 31.3069C105.688 31.1441 105.563 31.0248 105.411 30.9488C105.259 30.862 105.08 30.8077 104.874 30.786C104.679 30.7535 104.462 30.7372 104.223 30.7372C104.049 30.7372 103.86 30.7426 103.653 30.7535C103.458 30.7535 103.274 30.7589 103.1 30.7697V32.43C103.1 32.6037 103.1 32.799 103.1 33.016C103.1 33.2331 103.1 33.4392 103.1 33.6346C103.111 33.8299 103.127 34.009 103.149 34.1717C103.17 34.3237 103.208 34.4213 103.263 34.4647C103.317 34.519 103.415 34.5678 103.556 34.6112C103.697 34.6438 103.854 34.6709 104.028 34.6926C104.201 34.7143 104.375 34.7306 104.549 34.7414C104.722 34.7523 104.869 34.7577 104.988 34.7577C105.292 34.7577 105.558 34.7523 105.786 34.7414C106.024 34.7197 106.231 34.6655 106.404 34.5787C106.589 34.4919 106.746 34.3616 106.876 34.188C107.017 34.0144 107.148 33.7702 107.267 33.4555C107.321 33.4338 107.386 33.4175 107.462 33.4067C107.549 33.3958 107.63 33.3904 107.706 33.3904C107.88 33.3904 108.01 33.4121 108.097 33.4555L107.706 35.9785Z" fill="white"/>
<path d="M97.9928 29.8259C97.9928 30.7266 97.8138 31.5622 97.4557 32.3326C97.0976 33.0923 96.6147 33.7542 96.007 34.3185C95.3993 34.8828 94.6939 35.3223 93.8909 35.637C93.0988 35.9517 92.2632 36.109 91.3842 36.109C90.9718 36.109 90.6083 36.1036 90.2936 36.0927C89.9789 36.0819 89.6751 36.0656 89.3821 36.0439C89.0891 36.033 88.7798 36.0168 88.4543 35.9951C88.1396 35.9842 87.7815 35.9788 87.38 35.9788H86.5173C86.4956 35.9245 86.4793 35.8648 86.4684 35.7997C86.4576 35.7238 86.4521 35.6478 86.4521 35.5719C86.4521 35.4959 86.4576 35.4254 86.4684 35.3602C86.4793 35.2843 86.4956 35.2192 86.5173 35.1649C86.9513 35.1215 87.266 35.0021 87.4613 34.8068C87.5373 34.7309 87.597 34.6169 87.6404 34.465C87.6947 34.3022 87.7272 34.1286 87.7381 33.9441C87.7598 33.7488 87.7706 33.548 87.7706 33.3418C87.7815 33.1248 87.7869 32.9132 87.7869 32.707L87.8357 27.6936C87.8357 27.2812 87.8303 26.9014 87.8195 26.5541C87.8086 26.2069 87.7218 25.9519 87.559 25.7891C87.4722 25.7023 87.3528 25.6263 87.2009 25.5612C87.049 25.4961 86.8591 25.4527 86.6312 25.431C86.6095 25.3767 86.5932 25.3171 86.5824 25.2519C86.5715 25.176 86.5661 25.1 86.5661 25.0241C86.5661 24.9481 86.5715 24.8776 86.5824 24.8124C86.5932 24.7365 86.6095 24.6714 86.6312 24.6171C86.6855 24.6171 86.7777 24.6171 86.9079 24.6171C87.049 24.6171 87.1901 24.6117 87.3311 24.6008C87.4939 24.6008 87.6621 24.5954 87.8357 24.5846C88.2589 24.5737 88.6605 24.5629 89.0403 24.552C89.4201 24.5303 89.7944 24.514 90.1634 24.5032C90.5324 24.4923 90.9013 24.4815 91.2703 24.4706C91.6501 24.4598 92.0407 24.4543 92.4422 24.4543C93.2887 24.4543 94.0537 24.5683 94.7374 24.7962C95.4319 25.0241 96.0178 25.3659 96.4953 25.8217C96.9728 26.2774 97.3417 26.8417 97.6022 27.5145C97.8626 28.1765 97.9928 28.9469 97.9928 29.8259ZM95.5675 30.1352C95.5675 29.5492 95.497 28.9903 95.3559 28.4586C95.2148 27.916 94.9978 27.4385 94.7048 27.0262C94.4118 26.6138 94.0374 26.2883 93.5817 26.0495C93.1259 25.7999 92.5833 25.6752 91.9539 25.6752C91.2486 25.6752 90.6463 25.7186 90.1471 25.8054C90.1363 26.1309 90.1254 26.4348 90.1146 26.7169C90.1037 26.9665 90.0929 27.2215 90.082 27.482C90.082 27.7424 90.082 27.954 90.082 28.1168L90.0657 32.3815C90.0657 32.4357 90.0657 32.5659 90.0657 32.7721C90.0657 32.9783 90.0712 33.2008 90.082 33.4395C90.0929 33.6782 90.1091 33.9007 90.1308 34.1069C90.1525 34.3131 90.1851 34.4379 90.2285 34.4813C90.2936 34.5464 90.3859 34.6061 90.5052 34.6603C90.6246 34.7037 90.7494 34.7417 90.8796 34.7743C91.0207 34.796 91.1563 34.8177 91.2865 34.8394C91.4168 34.8502 91.5253 34.8556 91.6121 34.8556C92.0244 34.8556 92.4585 34.8014 92.9143 34.6929C93.37 34.5735 93.7878 34.4053 94.1676 34.1883C94.3847 33.9821 94.58 33.7271 94.7536 33.4232C94.9273 33.1194 95.0738 32.7884 95.1931 32.4303C95.3125 32.0722 95.4047 31.6978 95.4698 31.3072C95.5349 30.9165 95.5675 30.5258 95.5675 30.1352Z" fill="white"/>
<path d="M85.9888 35.5718C85.9888 35.6369 85.9833 35.7074 85.9725 35.7834C85.9616 35.8594 85.9453 35.9245 85.9236 35.9787H85.4516C85.3648 35.9787 85.2454 35.9733 85.0935 35.9624C84.9524 35.9624 84.7951 35.9624 84.6214 35.9624C84.4478 35.9624 84.2688 35.957 84.0843 35.9462C83.9107 35.9462 83.7533 35.9462 83.6122 35.9462C83.4712 35.9462 83.2921 35.9462 83.0751 35.9462C82.8581 35.957 82.641 35.9624 82.424 35.9624C82.207 35.9624 82.0062 35.9624 81.8217 35.9624C81.6481 35.9733 81.5233 35.9787 81.4474 35.9787H80.9753C80.9536 35.9245 80.9373 35.8594 80.9265 35.7834C80.9156 35.6966 80.9102 35.626 80.9102 35.5718C80.9102 35.5067 80.9102 35.4361 80.9102 35.3602C80.921 35.2842 80.9373 35.2191 80.959 35.1648C81.0567 35.154 81.1706 35.1323 81.3009 35.0997C81.4311 35.0672 81.5559 35.0292 81.6752 34.9858C81.7946 34.9315 81.8923 34.8664 81.9682 34.7905C82.055 34.7145 82.0984 34.6277 82.0984 34.53C82.0984 34.3455 82.0496 34.096 81.952 33.7813C81.8651 33.4666 81.7458 33.0651 81.5938 32.5767L81.366 31.8768H77.7198L77.4594 32.6093C77.2749 33.1193 77.1338 33.5425 77.0362 33.8789C76.9494 34.2153 76.906 34.4541 76.906 34.5951C76.906 34.682 76.9494 34.7579 77.0362 34.823C77.1338 34.8881 77.2424 34.9478 77.3617 35.0021C77.4811 35.0455 77.6005 35.0835 77.7198 35.116C77.8392 35.1377 77.9314 35.154 77.9965 35.1648C78.0182 35.2191 78.0291 35.2896 78.0291 35.3765C78.0399 35.4524 78.0454 35.5175 78.0454 35.5718C78.0454 35.6369 78.0399 35.7074 78.0291 35.7834C78.0291 35.8594 78.0182 35.9245 77.9965 35.9787H77.5896C77.5245 35.9787 77.3997 35.9733 77.2152 35.9624C77.0416 35.9624 76.8463 35.9624 76.6292 35.9624C76.4231 35.9624 76.2169 35.957 76.0107 35.9462C75.8154 35.9462 75.658 35.9462 75.5387 35.9462C75.2565 35.9462 74.9852 35.9516 74.7248 35.9624C74.4752 35.9733 74.2799 35.9787 74.1388 35.9787H73.7319C73.7102 35.9245 73.6939 35.8594 73.683 35.7834C73.6722 35.6966 73.6667 35.626 73.6667 35.5718C73.6667 35.5067 73.6722 35.4361 73.683 35.3602C73.6939 35.2842 73.7102 35.2191 73.7319 35.1648C73.8295 35.1431 73.976 35.1106 74.1713 35.0672C74.3775 35.0129 74.5566 34.9098 74.7085 34.7579C74.7736 34.6928 74.8659 34.5572 74.9852 34.351C75.1046 34.1339 75.224 33.9061 75.3433 33.6673C75.4627 33.4177 75.5712 33.1844 75.6689 32.9674C75.7774 32.7504 75.8479 32.593 75.8805 32.4953L79.0871 24.5194L80.9265 24.2915L83.9541 32.593C84.1386 33.1139 84.3067 33.5425 84.4587 33.8789C84.6106 34.2153 84.8005 34.4975 85.0284 34.7254C85.1477 34.8447 85.2942 34.9424 85.4679 35.0184C85.6524 35.0943 85.8043 35.1431 85.9236 35.1648C85.9453 35.2191 85.9616 35.2896 85.9725 35.3765C85.9833 35.4524 85.9888 35.5175 85.9888 35.5718ZM80.0475 27.8888C79.9498 27.6067 79.8739 27.33 79.8196 27.0587C79.7654 26.7765 79.7165 26.5486 79.6731 26.375C79.6297 26.5486 79.5646 26.7765 79.4778 27.0587C79.4018 27.33 79.3042 27.6175 79.1848 27.9214L78.1756 30.656H80.959L80.0475 27.8888Z" fill="white"/>
<path d="M141.535 7.39009C141.535 7.46605 141.53 7.54201 141.519 7.61798C141.508 7.68309 141.492 7.74277 141.47 7.79703C141.036 7.84043 140.721 7.9598 140.526 8.15513C140.363 8.31791 140.277 8.57835 140.266 8.93645C140.255 9.29455 140.249 9.67979 140.249 10.0922L140.201 15.0731C140.201 15.2792 140.201 15.4908 140.201 15.7079C140.211 15.9141 140.222 16.1148 140.233 16.3101C140.255 16.4946 140.287 16.6682 140.331 16.831C140.374 16.9829 140.439 17.0969 140.526 17.1728C140.613 17.2597 140.732 17.3356 140.884 17.4007C141.036 17.4658 141.226 17.5092 141.454 17.531C141.476 17.5852 141.492 17.6503 141.503 17.7263C141.514 17.7914 141.519 17.8619 141.519 17.9379C141.519 18.0138 141.514 18.0898 141.503 18.1658C141.492 18.2309 141.476 18.2906 141.454 18.3448H140.868C140.575 18.3448 140.249 18.3394 139.891 18.3285C139.544 18.3177 139.262 18.3123 139.045 18.3123C138.806 18.3123 138.524 18.3177 138.198 18.3285C137.884 18.3394 137.591 18.3448 137.319 18.3448H136.668C136.647 18.2906 136.63 18.2309 136.62 18.1658C136.609 18.0898 136.603 18.0138 136.603 17.9379C136.603 17.8619 136.609 17.7914 136.62 17.7263C136.63 17.6503 136.647 17.5852 136.668 17.531C137.102 17.4875 137.417 17.3682 137.612 17.1728C137.688 17.0969 137.748 16.9829 137.792 16.831C137.846 16.6682 137.878 16.4946 137.889 16.3101C137.911 16.1148 137.922 15.9141 137.922 15.7079C137.933 15.4908 137.938 15.2792 137.938 15.0731L137.987 10.0922C137.987 9.67979 137.981 9.29455 137.971 8.93645C137.96 8.57835 137.873 8.31791 137.71 8.15513C137.623 8.06832 137.504 7.99236 137.352 7.92725C137.2 7.86214 137.01 7.81873 136.782 7.79703C136.761 7.74277 136.744 7.68309 136.733 7.61798C136.723 7.54201 136.717 7.46605 136.717 7.39009C136.717 7.31413 136.723 7.24359 136.733 7.17848C136.744 7.10252 136.761 7.03741 136.782 6.98315H137.368C137.661 6.98315 137.976 6.98858 138.312 6.99943C138.649 7.01028 138.926 7.01571 139.143 7.01571C139.381 7.01571 139.653 7.01028 139.956 6.99943C140.26 6.98858 140.548 6.98315 140.819 6.98315H141.47C141.492 7.03741 141.508 7.10252 141.519 7.17848C141.53 7.24359 141.535 7.31413 141.535 7.39009Z" fill="white"/>
<path d="M136.281 7.39009C136.281 7.46605 136.276 7.54744 136.265 7.63425C136.254 7.71021 136.238 7.76447 136.216 7.79703C135.923 7.81873 135.679 7.87841 135.483 7.97608C135.288 8.07374 135.109 8.20396 134.946 8.36674C134.816 8.49696 134.686 8.64888 134.556 8.82251C134.425 8.98528 134.295 9.16433 134.165 9.35966L131.821 12.9082L131.87 15.0731C131.87 15.2792 131.87 15.4908 131.87 15.7079C131.881 15.9141 131.897 16.1148 131.919 16.3101C131.94 16.4946 131.967 16.6682 132 16.831C132.043 16.9829 132.108 17.0969 132.195 17.1728C132.282 17.2597 132.401 17.3356 132.553 17.4007C132.705 17.4658 132.895 17.5092 133.123 17.531C133.145 17.5852 133.161 17.6503 133.172 17.7263C133.183 17.7914 133.188 17.8619 133.188 17.9379C133.188 18.0138 133.183 18.0898 133.172 18.1658C133.161 18.2309 133.145 18.2906 133.123 18.3448H132.537C132.244 18.3448 131.919 18.3394 131.56 18.3285C131.213 18.3177 130.931 18.3123 130.714 18.3123C130.475 18.3123 130.193 18.3177 129.868 18.3285C129.553 18.3394 129.26 18.3448 128.989 18.3448H128.338C128.316 18.2906 128.3 18.2309 128.289 18.1658C128.278 18.0898 128.272 18.0138 128.272 17.9379C128.272 17.8619 128.278 17.7914 128.289 17.7263C128.3 17.6503 128.316 17.5852 128.338 17.531C128.772 17.4875 129.086 17.3682 129.282 17.1728C129.358 17.0969 129.417 16.9829 129.461 16.831C129.515 16.6682 129.548 16.4946 129.558 16.3101C129.58 16.1148 129.591 15.9141 129.591 15.7079C129.602 15.4908 129.607 15.2792 129.607 15.0731L129.591 13.0546L127.442 9.42477C127.323 9.2403 127.198 9.04497 127.068 8.83879C126.949 8.6326 126.807 8.44813 126.645 8.28535C126.514 8.15513 126.368 8.04662 126.205 7.9598C126.053 7.87299 125.885 7.81873 125.701 7.79703C125.679 7.74277 125.663 7.68851 125.652 7.63425C125.641 7.56914 125.635 7.49861 125.635 7.42265C125.635 7.34668 125.641 7.27072 125.652 7.19476C125.663 7.10795 125.679 7.03741 125.701 6.98315H126.221C126.287 6.98315 126.384 6.98858 126.514 6.99943C126.656 6.99943 126.807 6.99943 126.97 6.99943C127.133 6.99943 127.296 7.00486 127.459 7.01571C127.621 7.01571 127.768 7.01571 127.898 7.01571C128.028 7.01571 128.175 7.01571 128.338 7.01571C128.511 7.00486 128.679 6.99943 128.842 6.99943C129.005 6.99943 129.157 6.99943 129.298 6.99943C129.439 6.98858 129.548 6.98315 129.623 6.98315H130.112C130.133 7.03741 130.15 7.10252 130.161 7.17848C130.171 7.24359 130.177 7.31413 130.177 7.39009C130.177 7.46605 130.171 7.54201 130.161 7.61798C130.15 7.68309 130.133 7.74277 130.112 7.79703C129.862 7.80788 129.689 7.85129 129.591 7.92725C129.504 8.00321 129.461 8.1063 129.461 8.23652C129.461 8.38844 129.515 8.56749 129.623 8.77368C129.743 8.97986 129.846 9.16433 129.933 9.32711L130.454 10.2712C130.573 10.4882 130.687 10.7107 130.795 10.9386C130.915 11.1665 131.002 11.3401 131.056 11.4595C131.11 11.3401 131.208 11.161 131.349 10.9223C131.501 10.6836 131.642 10.4557 131.772 10.2386L132.342 9.32711C132.439 9.16433 132.548 8.98528 132.667 8.78995C132.798 8.58377 132.863 8.40472 132.863 8.2528C132.863 8.12258 132.819 8.01949 132.732 7.94352C132.646 7.85671 132.477 7.80788 132.228 7.79703C132.206 7.76447 132.19 7.71021 132.179 7.63425C132.168 7.54744 132.163 7.46605 132.163 7.39009C132.163 7.22732 132.184 7.09167 132.228 6.98315H132.635C132.7 6.98315 132.803 6.98858 132.944 6.99943C133.085 6.99943 133.242 6.99943 133.416 6.99943C133.59 6.99943 133.758 7.00486 133.921 7.01571C134.094 7.01571 134.241 7.01571 134.36 7.01571C134.577 7.01571 134.832 7.01028 135.125 6.99943C135.418 6.98858 135.624 6.98315 135.744 6.98315H136.216C136.259 7.09167 136.281 7.22732 136.281 7.39009Z" fill="white"/>
<path d="M125.083 7.39009C125.083 7.46605 125.078 7.54201 125.067 7.61798C125.056 7.68309 125.04 7.74277 125.018 7.79703C124.584 7.84043 124.269 7.9598 124.074 8.15513C123.911 8.31791 123.824 8.57835 123.814 8.93645C123.803 9.29455 123.797 9.67979 123.797 10.0922L123.748 15.0731C123.748 15.2792 123.748 15.4908 123.748 15.7079C123.759 15.9141 123.77 16.1148 123.781 16.3101C123.803 16.4946 123.835 16.6682 123.879 16.831C123.922 16.9829 123.987 17.0969 124.074 17.1728C124.161 17.2597 124.28 17.3356 124.432 17.4007C124.584 17.4658 124.774 17.5092 125.002 17.531C125.023 17.5852 125.04 17.6503 125.051 17.7263C125.061 17.7914 125.067 17.8619 125.067 17.9379C125.067 18.0138 125.061 18.0898 125.051 18.1658C125.04 18.2309 125.023 18.2906 125.002 18.3448H124.416C124.123 18.3448 123.797 18.3394 123.439 18.3285C123.092 18.3177 122.81 18.3123 122.593 18.3123C122.354 18.3123 122.072 18.3177 121.746 18.3285C121.432 18.3394 121.139 18.3448 120.867 18.3448H120.216C120.195 18.2906 120.178 18.2309 120.167 18.1658C120.157 18.0898 120.151 18.0138 120.151 17.9379C120.151 17.8619 120.157 17.7914 120.167 17.7263C120.178 17.6503 120.195 17.5852 120.216 17.531C120.65 17.4875 120.965 17.3682 121.16 17.1728C121.236 17.0969 121.296 16.9829 121.339 16.831C121.394 16.6682 121.426 16.4946 121.437 16.3101C121.459 16.1148 121.47 15.9141 121.47 15.7079C121.48 15.4908 121.486 15.2792 121.486 15.0731L121.535 10.0922C121.535 9.67979 121.529 9.29455 121.518 8.93645C121.508 8.57835 121.421 8.31791 121.258 8.15513C121.171 8.06832 121.052 7.99236 120.9 7.92725C120.748 7.86214 120.558 7.81873 120.33 7.79703C120.308 7.74277 120.292 7.68309 120.281 7.61798C120.27 7.54201 120.265 7.46605 120.265 7.39009C120.265 7.31413 120.27 7.24359 120.281 7.17848C120.292 7.10252 120.308 7.03741 120.33 6.98315H120.916C121.209 6.98315 121.524 6.98858 121.86 6.99943C122.197 7.01028 122.473 7.01571 122.69 7.01571C122.929 7.01571 123.2 7.01028 123.504 6.99943C123.808 6.98858 124.096 6.98315 124.367 6.98315H125.018C125.04 7.03741 125.056 7.10252 125.067 7.17848C125.078 7.24359 125.083 7.31413 125.083 7.39009Z" fill="white"/>
<path d="M118.593 14.9589C118.593 15.534 118.457 16.044 118.186 16.489C117.914 16.923 117.562 17.2866 117.128 17.5796C116.694 17.8725 116.211 18.095 115.679 18.2469C115.158 18.3989 114.648 18.4748 114.149 18.4748C113.867 18.4748 113.552 18.4694 113.205 18.4585C112.858 18.4477 112.494 18.4314 112.114 18.4097C111.745 18.3989 111.366 18.3826 110.975 18.3609C110.595 18.35 110.226 18.3446 109.868 18.3446H109.201C109.179 18.2903 109.163 18.2307 109.152 18.1655C109.141 18.0896 109.135 18.0136 109.135 17.9377C109.135 17.8617 109.141 17.7912 109.152 17.726C109.163 17.6501 109.179 17.585 109.201 17.5307C109.635 17.4873 109.949 17.3679 110.145 17.1726C110.221 17.0967 110.28 16.9827 110.324 16.8308C110.378 16.668 110.416 16.4944 110.438 16.3099C110.459 16.1146 110.47 15.9138 110.47 15.7076C110.481 15.4906 110.487 15.279 110.487 15.0728L110.519 10.0919C110.519 9.67956 110.514 9.29432 110.503 8.93622C110.492 8.57811 110.405 8.31768 110.242 8.1549C110.156 8.06809 110.036 7.99213 109.884 7.92702C109.732 7.86191 109.542 7.8185 109.315 7.7968C109.293 7.74254 109.277 7.68285 109.266 7.61774C109.255 7.54178 109.249 7.46582 109.249 7.38986C109.249 7.3139 109.255 7.24336 109.266 7.17825C109.277 7.10229 109.293 7.03718 109.315 6.98292C109.315 6.99377 109.374 6.9992 109.494 6.9992C109.613 6.98835 109.743 6.98292 109.884 6.98292C110.047 6.98292 110.232 6.9775 110.438 6.96665C110.763 6.96665 111.132 6.96122 111.545 6.95037C111.968 6.92866 112.38 6.91239 112.782 6.90154C113.194 6.87983 113.568 6.86356 113.905 6.8527C114.252 6.84185 114.518 6.83643 114.702 6.83643C115.158 6.83643 115.598 6.86355 116.021 6.91781C116.455 6.97207 116.84 7.09144 117.177 7.27592C117.524 7.4604 117.801 7.73169 118.007 8.08979C118.213 8.43704 118.316 8.90366 118.316 9.48965C118.316 9.8369 118.251 10.1516 118.121 10.4337C118.001 10.705 117.833 10.9492 117.616 11.1662C117.41 11.3724 117.166 11.5515 116.884 11.7034C116.612 11.8553 116.325 11.9801 116.021 12.0778C116.824 12.1754 117.453 12.4793 117.909 12.9893C118.365 13.4885 118.593 14.145 118.593 14.9589ZM115.939 9.76637C115.939 9.18038 115.76 8.75174 115.402 8.48045C115.055 8.20916 114.588 8.07351 114.002 8.07351C113.775 8.07351 113.552 8.08437 113.335 8.10607C113.129 8.11692 112.966 8.12777 112.847 8.13862C112.836 8.29055 112.825 8.44247 112.814 8.59439C112.803 8.72461 112.798 8.87111 112.798 9.03388C112.798 9.18581 112.798 9.32688 112.798 9.4571L112.782 11.8011H113.384C113.568 11.8011 113.78 11.7902 114.019 11.7685C114.257 11.7468 114.464 11.7142 114.637 11.6708C114.789 11.5949 114.941 11.5026 115.093 11.3941C115.245 11.2747 115.381 11.1391 115.5 10.9872C115.63 10.8244 115.733 10.6454 115.809 10.45C115.896 10.2438 115.939 10.016 115.939 9.76637ZM116.119 14.9426C116.119 14.5736 116.053 14.2644 115.923 14.0148C115.804 13.7652 115.641 13.5699 115.435 13.4288C115.229 13.2877 114.99 13.1901 114.719 13.1358C114.447 13.0707 114.165 13.0381 113.872 13.0381C113.677 13.0381 113.476 13.0436 113.27 13.0544C113.075 13.0544 112.906 13.0598 112.765 13.0707L112.749 14.6171C112.749 14.6822 112.749 14.8395 112.749 15.0891C112.749 15.3278 112.755 15.5829 112.765 15.8541C112.776 16.1254 112.787 16.3696 112.798 16.5866C112.809 16.8037 112.83 16.9285 112.863 16.961C112.972 17.0695 113.129 17.1455 113.335 17.1889C113.541 17.2323 113.791 17.254 114.084 17.254C114.192 17.254 114.333 17.2432 114.507 17.2214C114.681 17.1889 114.811 17.1618 114.898 17.1401C115.223 16.9556 115.505 16.668 115.744 16.2774C115.994 15.8758 116.119 15.4309 116.119 14.9426Z" fill="white"/>
<path d="M108.672 17.9378C108.672 18.0029 108.667 18.0734 108.656 18.1494C108.645 18.2253 108.629 18.2904 108.607 18.3447H108.135C108.048 18.3447 107.929 18.3393 107.777 18.3284C107.636 18.3284 107.478 18.3284 107.305 18.3284C107.131 18.3284 106.952 18.323 106.768 18.3121C106.594 18.3121 106.437 18.3121 106.296 18.3121C106.155 18.3121 105.975 18.3121 105.758 18.3121C105.541 18.323 105.324 18.3284 105.107 18.3284C104.89 18.3284 104.69 18.3284 104.505 18.3284C104.331 18.3393 104.207 18.3447 104.131 18.3447H103.659C103.637 18.2904 103.621 18.2253 103.61 18.1494C103.599 18.0625 103.594 17.992 103.594 17.9378C103.594 17.8726 103.594 17.8021 103.594 17.7261C103.604 17.6502 103.621 17.5851 103.642 17.5308C103.74 17.52 103.854 17.4983 103.984 17.4657C104.114 17.4332 104.239 17.3952 104.359 17.3518C104.478 17.2975 104.576 17.2324 104.652 17.1564C104.738 17.0805 104.782 16.9937 104.782 16.896C104.782 16.7115 104.733 16.4619 104.635 16.1472C104.548 15.8325 104.429 15.431 104.277 14.9427L104.049 14.2428H100.403L100.143 14.9753C99.9583 15.4853 99.8172 15.9085 99.7195 16.2449C99.6327 16.5813 99.5893 16.82 99.5893 16.9611C99.5893 17.0479 99.6327 17.1239 99.7195 17.189C99.8172 17.2541 99.9257 17.3138 100.045 17.368C100.164 17.4114 100.284 17.4494 100.403 17.482C100.523 17.5037 100.615 17.52 100.68 17.5308C100.702 17.5851 100.712 17.6556 100.712 17.7424C100.723 17.8184 100.729 17.8835 100.729 17.9378C100.729 18.0029 100.723 18.0734 100.712 18.1494C100.712 18.2253 100.702 18.2904 100.68 18.3447H100.273C100.208 18.3447 100.083 18.3393 99.8986 18.3284C99.7249 18.3284 99.5296 18.3284 99.3126 18.3284C99.1064 18.3284 98.9002 18.323 98.694 18.3121C98.4987 18.3121 98.3414 18.3121 98.222 18.3121C97.9399 18.3121 97.6686 18.3176 97.4081 18.3284C97.1585 18.3393 96.9632 18.3447 96.8221 18.3447H96.4152C96.3935 18.2904 96.3772 18.2253 96.3664 18.1494C96.3555 18.0625 96.3501 17.992 96.3501 17.9378C96.3501 17.8726 96.3555 17.8021 96.3664 17.7261C96.3772 17.6502 96.3935 17.5851 96.4152 17.5308C96.5129 17.5091 96.6594 17.4766 96.8547 17.4332C97.0609 17.3789 97.2399 17.2758 97.3919 17.1239C97.457 17.0588 97.5492 16.9231 97.6686 16.7169C97.7879 16.4999 97.9073 16.272 98.0267 16.0333C98.146 15.7837 98.2546 15.5504 98.3522 15.3334C98.4607 15.1163 98.5313 14.959 98.5638 14.8613L101.77 6.88536L103.61 6.65747L106.637 14.959C106.822 15.4799 106.99 15.9085 107.142 16.2449C107.294 16.5813 107.484 16.8634 107.712 17.0913C107.831 17.2107 107.978 17.3084 108.151 17.3843C108.336 17.4603 108.488 17.5091 108.607 17.5308C108.629 17.5851 108.645 17.6556 108.656 17.7424C108.667 17.8184 108.672 17.8835 108.672 17.9378ZM102.731 10.2548C102.633 9.97265 102.557 9.69593 102.503 9.42464C102.449 9.1425 102.4 8.91461 102.356 8.74099C102.313 8.91461 102.248 9.1425 102.161 9.42464C102.085 9.69593 101.988 9.9835 101.868 10.2873L100.859 13.022H103.642L102.731 10.2548Z" fill="white"/>
<path d="M96.0408 18.3448C95.8997 18.3448 95.7153 18.3394 95.4874 18.3285C95.2704 18.3285 95.037 18.3285 94.7875 18.3285C94.5379 18.3285 94.2829 18.3231 94.0224 18.3123C93.762 18.3123 93.5287 18.3123 93.3225 18.3123H90.0345C89.7415 18.3123 89.4593 18.3177 89.188 18.3285C88.9167 18.3394 88.6726 18.3448 88.4555 18.3448H87.8207C87.799 18.2906 87.7827 18.2309 87.7719 18.1658C87.761 18.0898 87.7556 18.0138 87.7556 17.9379C87.7556 17.8619 87.761 17.7914 87.7719 17.7263C87.7827 17.6503 87.799 17.5852 87.8207 17.531C88.2548 17.4875 88.5695 17.3682 88.7648 17.1728C88.8408 17.0969 88.9005 16.9829 88.9439 16.831C88.9981 16.6682 89.0307 16.4946 89.0415 16.3101C89.0632 16.1148 89.0741 15.9141 89.0741 15.7079C89.0849 15.4908 89.0904 15.2792 89.0904 15.0731L89.1392 10.0922C89.1392 9.67979 89.1338 9.29455 89.1229 8.93645C89.1121 8.57835 89.0253 8.31791 88.8625 8.15513C88.7757 8.06832 88.6563 7.99236 88.5044 7.92725C88.3525 7.86214 88.1626 7.81873 87.9347 7.79703C87.913 7.74277 87.8967 7.68309 87.8858 7.61798C87.875 7.54201 87.8696 7.46605 87.8696 7.39009C87.8696 7.31413 87.875 7.24359 87.8858 7.17848C87.8967 7.10252 87.913 7.03741 87.9347 6.98315H88.5207C88.8136 6.98315 89.1283 6.98858 89.4647 6.99943C89.8011 7.01028 90.0779 7.01571 90.2949 7.01571C90.5336 7.01571 90.8049 7.01028 91.1088 6.99943C91.4126 6.98858 91.7002 6.98315 91.9715 6.98315H92.6226C92.6443 7.03741 92.6605 7.10252 92.6714 7.17848C92.6822 7.24359 92.6877 7.31413 92.6877 7.39009C92.6877 7.46605 92.6822 7.54201 92.6714 7.61798C92.6605 7.68309 92.6443 7.74277 92.6226 7.79703C92.1885 7.84043 91.8738 7.9598 91.6785 8.15513C91.5157 8.31791 91.4289 8.57835 91.418 8.93645C91.4072 9.29455 91.4018 9.67979 91.4018 10.0922L91.3692 14.6661C91.3583 15.2847 91.3638 15.8001 91.3855 16.2125C91.4072 16.614 91.4397 16.8364 91.4831 16.8799C91.5374 16.9341 91.6513 16.9775 91.825 17.0101C92.0094 17.0426 92.1993 17.0698 92.3947 17.0915C92.6009 17.1023 92.7908 17.1132 92.9644 17.124C93.1489 17.124 93.2737 17.124 93.3388 17.124C93.6426 17.124 93.9085 17.1186 94.1364 17.1077C94.3751 17.086 94.5867 17.0318 94.7712 16.945C94.9557 16.8581 95.113 16.7279 95.2432 16.5543C95.3843 16.3807 95.5145 16.1365 95.6339 15.8218C95.7424 15.7784 95.8726 15.7567 96.0245 15.7567C96.1114 15.7567 96.1765 15.7621 96.2199 15.773C96.2741 15.7838 96.3284 15.8001 96.3826 15.8218L96.0408 18.3448Z" fill="white"/>
<path d="M86.2655 12.3705C86.2655 13.2495 86.1027 14.0688 85.7771 14.8284C85.4516 15.588 85.0067 16.25 84.4424 16.8143C83.8889 17.3677 83.2324 17.8018 82.4728 18.1165C81.7132 18.4312 80.8993 18.5885 80.0312 18.5885C79.2065 18.5885 78.4686 18.4529 77.8175 18.1816C77.1772 17.8994 76.6292 17.5142 76.1735 17.0259C75.7285 16.5267 75.3867 15.9353 75.148 15.2516C74.9201 14.5571 74.8062 13.7975 74.8062 12.9728C74.8062 12.0504 74.9635 11.2094 75.2782 10.4498C75.6037 9.67932 76.0432 9.0228 76.5967 8.48021C77.161 7.92678 77.8229 7.49814 78.5825 7.19429C79.3421 6.89045 80.156 6.73853 81.0241 6.73853C81.8488 6.73853 82.5868 6.87417 83.2379 7.14546C83.889 7.41675 84.437 7.80199 84.8819 8.30116C85.3268 8.78949 85.6686 9.3809 85.9073 10.0754C86.1461 10.7699 86.2655 11.535 86.2655 12.3705ZM83.8401 12.5496C83.8401 11.9853 83.7642 11.4319 83.6122 10.8893C83.4712 10.3467 83.2541 9.8638 82.9611 9.44058C82.679 9.00652 82.3155 8.65927 81.8706 8.39883C81.4365 8.12754 80.9265 7.99189 80.3405 7.99189C80.0583 7.99189 79.7436 8.04072 79.3964 8.13839C79.0491 8.2252 78.7833 8.32829 78.5988 8.44766C78.2081 8.91428 77.8826 9.48942 77.6221 10.1731C77.3617 10.8567 77.2315 11.7303 77.2315 12.7937C77.2315 13.3689 77.302 13.9277 77.4431 14.4703C77.5842 15.0129 77.8012 15.4958 78.0942 15.919C78.3872 16.3422 78.7507 16.6841 79.1848 16.9445C79.6188 17.2049 80.1289 17.3352 80.7149 17.3352C80.997 17.3352 81.3117 17.2917 81.6589 17.2049C82.017 17.1073 82.2883 16.9988 82.4728 16.8794C82.6681 16.6515 82.8472 16.3965 83.01 16.1143C83.1836 15.8322 83.3301 15.5175 83.4495 15.1703C83.5688 14.823 83.6611 14.4323 83.7262 13.9983C83.8021 13.5642 83.8401 13.0813 83.8401 12.5496Z" fill="white"/>
</svg>
